# xmcd CD database file
#
# Track frame offsets:
#	182
#	14417
#	33145
#	50002
#	72337
#	86612
#	104595
#	120217
#	137072
#	153782
#	170930
#	188175
#	204672
#	228765
#	244755
#
# Disc length: 3502 seconds
#
# Revision: 0
# Processed by: cddbd v1.5.1PL2 Copyright (c) Steve Scherf et al.
# Submitted via: CDex 1.51
#
DISCID=c70dac0f
DTITLE=Jeane Manson - Les plus belles chansons
DYEAR=1900
DGENRE=Français
TTITLE0=La chapelle de Harlem
TTITLE1=Vis ta vie
TTITLE2=Fly to New York City
TTITLE3=Love moi dans tes bras
TTITLE4=Viens (words)
TTITLE5=Amitié et amour
TTITLE6=Une Américaine à Paris
TTITLE7=Ce n,est qu'un au-revoir
TTITLE8=Dis jamais goodbye  (no woman no cry)
TTITLE9=Les orangers d'Athenes
TTITLE10=Ne dis rien
TTITLE11=besoin d'un homme
TTITLE12=Comme un bateau ivre
TTITLE13=No volvere
TTITLE14=Avant de nous dire adieu
EXTD=
EXTT0=
EXTT1=
EXTT2=
EXTT3=
EXTT4=
EXTT5=
EXTT6=
EXTT7=
EXTT8=
EXTT9=
EXTT10=
EXTT11=
EXTT12=
EXTT13=
EXTT14=
PLAYORDER=
